<?xml version="1.0" encoding="utf-8"?><svg viewBox="0 0 512 512" xmlns="http://www.w3.org/2000/svg" xmlns:xlink="http://www.w3.org/1999/xlink"><style>:root>svg{display:none}:root>svg:target{display:block}</style><svg viewBox="0 0 320 512" id="facebook" xmlns="http://www.w3.org/2000/svg"><path d="m279.14 288 14.22-92.66h-88.91v-60.13c0-25.35 12.42-50.06 52.24-50.06h40.42V6.26S260.43 0 225.36 0c-73.22 0-121.08 44.38-121.08 124.72v70.62H22.89V288h81.39v224h100.17V288z"/></svg><svg viewBox="0 0 51 58" id="github" xmlns="http://www.w3.org/2000/svg"><path d="M25.478.918C11.712.91.562 13.815.562 29.74c0 12.594 6.975 23.3 16.689 27.232 1.308.38 1.107-.697 1.107-1.431v-4.995c-7.553 1.024-7.86-4.764-8.366-5.73-1.024-2.024-3.446-2.54-2.722-3.507 1.72-1.024 3.473.258 5.505 3.732 1.47 2.52 4.336 2.095 5.79 1.676.316-1.515.996-2.868 1.93-3.919-7.826-1.624-11.087-7.154-11.087-13.728 0-3.19.907-6.123 2.688-8.489-1.136-3.899.106-7.238.273-7.734 3.234-.335 6.596 2.681 6.858 2.92 1.837-.574 3.935-.877 6.284-.877 2.36 0 4.464.316 6.318.896.629-.554 3.746-3.145 6.752-2.83.161.497 1.375 3.758.306 7.606 1.804 2.372 2.722 5.33 2.722 8.527 0 6.587-3.284 12.124-11.133 13.722a8.387 8.387 0 0 1 1.57 2.686 9.352 9.352 0 0 1 .551 3.18v7.25c.045.58 0 1.154.835 1.154 9.858-3.848 16.955-14.63 16.955-27.334 0-15.933-11.155-28.83-24.91-28.83Z"/></svg><svg viewBox="0 0 44 48" id="instagram" xmlns="http://www.w3.org/2000/svg"><path d="M12.76 0h18.48C38.28 0 44 6.24 44 13.92v20.16c0 3.692-1.344 7.232-3.737 9.843C37.87 46.533 34.624 48 31.24 48H12.76C5.72 48 0 41.76 0 34.08V13.92c0-3.692 1.344-7.232 3.737-9.843C6.13 1.467 9.376 0 12.76 0Zm-.44 4.8c-2.1 0-4.115.91-5.6 2.53-1.486 1.62-2.32 3.82-2.32 6.11v21.12c0 4.776 3.542 8.64 7.92 8.64h19.36c2.1 0 4.115-.91 5.6-2.53 1.486-1.62 2.32-3.819 2.32-6.11V13.44c0-4.776-3.542-8.64-7.92-8.64H12.32Zm21.23 3.6c.73 0 1.429.316 1.945.879.515.562.805 1.325.805 2.121s-.29 1.559-.805 2.121a2.64 2.64 0 0 1-1.945.879 2.64 2.64 0 0 1-1.944-.879A3.143 3.143 0 0 1 30.8 11.4c0-.796.29-1.559.805-2.121A2.639 2.639 0 0 1 33.55 8.4ZM22 12c2.917 0 5.715 1.264 7.778 3.515C31.841 17.765 33 20.817 33 24s-1.159 6.235-3.222 8.485C27.715 34.735 24.918 36 22 36c-2.917 0-5.715-1.264-7.778-3.515C12.159 30.235 11 27.183 11 24s1.159-6.235 3.222-8.485C16.285 13.265 19.082 12 22 12Zm0 4.8c-1.75 0-3.43.759-4.667 2.109C16.095 20.259 15.4 22.09 15.4 24c0 1.91.695 3.74 1.933 5.091C18.571 30.441 20.25 31.2 22 31.2s3.43-.759 4.667-2.109C27.905 27.741 28.6 25.91 28.6 24c0-1.91-.695-3.74-1.933-5.091C25.429 17.559 23.75 16.8 22 16.8Z"/></svg><svg viewBox="0 0 512 512" id="mail" xmlns="http://www.w3.org/2000/svg"><path d="M464 64H48C21.49 64 0 85.49 0 112v288c0 26.51 21.49 48 48 48h416c26.51 0 48-21.49 48-48V112c0-26.51-21.49-48-48-48zm0 48v40.805c-22.422 18.259-58.168 46.651-134.587 106.49-16.841 13.247-50.201 45.072-73.413 44.701-23.208.375-56.579-31.459-73.413-44.701C106.18 199.465 70.425 171.067 48 152.805V112h416zM48 400V214.398c22.914 18.251 55.409 43.862 104.938 82.646 21.857 17.205 60.134 55.186 103.062 54.955 42.717.231 80.509-37.199 103.053-54.947 49.528-38.783 82.032-64.401 104.947-82.653V400H48z"/></svg><svg viewBox="0 0 496 512" id="telegram" xmlns="http://www.w3.org/2000/svg"><path d="M248 8C111 8 0 119 0 256s111 248 248 248 248-111 248-248S385 8 248 8zm121.8 169.9-40.7 191.8c-3 13.6-11.1 16.9-22.4 10.5l-62-45.7-29.9 28.8c-3.3 3.3-6.1 6.1-12.5 6.1l4.4-63.1 114.9-103.8c5-4.4-1.1-6.9-7.7-2.5l-142 89.4-61.2-19.1c-13.3-4.2-13.6-13.3 2.8-19.7l239.1-92.2c11.1-4 20.8 2.7 17.2 19.5z"/></svg></svg>